<?xml version="1.0" encoding="UTF-8" standalone="no"?>
<svg
   xmlns:dc="http://purl.org/dc/elements/1.1/"
   xmlns:cc="http://creativecommons.org/ns#"
   xmlns:rdf="http://www.w3.org/1999/02/22-rdf-syntax-ns#"
   xmlns:svg="http://www.w3.org/2000/svg"
   xmlns="http://www.w3.org/2000/svg"
   version="1.1"
   id="svg4774"
   viewBox="0 0 399.99999 399.99561"
   height="399.99561"
   width="400">
  <defs
     id="defs4776">
    <clipPath
       id="clipPath4188"
       clipPathUnits="userSpaceOnUse">
      <path
         id="path4190"
         d="m 0,0 595.276,0 0,841.89 L 0,841.89 0,0 Z" />
    </clipPath>
  </defs>
  <metadata
     id="metadata4779">
    <rdf:RDF>
      <cc:Work
         rdf:about="">
        <dc:format>image/svg+xml</dc:format>
        <dc:type
           rdf:resource="http://purl.org/dc/dcmitype/StillImage" />
        <dc:title></dc:title>
      </cc:Work>
    </rdf:RDF>
  </metadata>
  <g
     transform="translate(7.8992e-6,-652.36659)"
     id="layer1">
    <path
       d="m 381.29486,767.80509 c -31.85895,-68.19124 -101.05833,-115.4385 -181.29487,-115.4385 -80.23654,0 -149.43592,47.24726 -181.294868,115.4385 l 22.659131,10.57019 C 69.243014,718.7074 129.79247,677.36496 199.99999,677.36496 c 70.20316,0 130.75698,41.34244 158.63137,101.01032 l 22.6635,-10.57019 z M 35.516172,792.47614 12.019107,783.92223 C 4.2420328,805.27645 -7.8992e-6,828.324 -7.8992e-6,852.36659 c 0,24.03823 4.2420406992,47.09015 12.0191148992,68.44 l 23.497065,-8.5539 c -6.803849,-18.68331 -10.517817,-38.85046 -10.517817,-59.8861 0,-21.03563 3.713968,-41.20715 10.517817,-59.89045 M 18.705122,936.92373 C 50.56407,1005.115 119.76345,1052.3622 199.99999,1052.3622 c 80.23654,0 149.43592,-47.2472 181.29487,-115.43847 l -22.6635,-10.57019 c -27.87439,59.66788 -88.42821,101.01036 -158.63137,101.01036 -70.20752,0 -130.756976,-41.34248 -158.635737,-101.01036 L 18.705122,936.92373 Z M 364.47945,792.47614 c 6.80384,18.6833 10.51781,38.85482 10.51781,59.89045 0,21.03564 -3.71397,41.20279 -10.51781,59.8861 l 23.49706,8.5539 c 7.77708,-21.34985 12.02348,-44.40177 12.02348,-68.44 0,-24.04259 -4.2464,-47.09014 -12.02348,-68.44436 l -23.49706,8.55391 z"
       style="fill:#be0028;fill-opacity:1;fill-rule:nonzero;stroke:none"
       id="path4194" />
    <path
       d="m 165.0001,812.36523 c -4.98833,0 -10.35634,0.88594 -14.99989,1.87662 l 0,-41.87487 -20.90907,2.2694 0,112.42717 c 8.63683,2.72765 19.84856,5.30255 30.90754,5.30255 25.15111,0 39.99826,-8.48408 39.99826,-40.00262 0,-31.51417 -14.84715,-39.99825 -34.99684,-39.99825 m -3.33428,62.12058 c -3.78816,0 -7.12244,-0.45388 -11.66561,-1.51439 l 0,-41.18532 c 3.76197,-0.86412 7.48903,-1.54058 11.66561,-1.54058 11.36448,0 16.81978,5.1498 16.81978,22.11796 0,16.97253 -5.4553,22.12233 -16.81978,22.12233"
       style="fill:#be0028;fill-opacity:1;fill-rule:nonzero;stroke:none"
       id="path4198" />
    <path
       d="m 245.85422,843.12269 c -8.93796,-0.15275 -14.54601,-0.30113 -14.54601,-5.1498 0,-6.36306 3.78816,-7.72907 15.30539,-7.72907 6.96969,0 16.81541,1.36601 23.02572,2.8804 l -1.66277,-17.27366 c -8.0302,-2.42652 -16.97253,-3.48703 -22.88171,-3.48703 -25.15111,0 -34.84409,9.09071 -34.84409,26.21162 0,16.51865 10.15123,20.76069 27.27214,21.06182 11.05898,0.15275 16.81541,-0.15275 16.81541,7.12244 0,6.36306 -5.00142,7.7247 -15.7549,7.7247 -11.97111,0 -20.45519,-1.81552 -26.66987,-3.78379 l 1.66714,17.26929 c 8.0302,2.8804 15.60652,4.39479 26.6655,4.39479 26.81825,0 35.15395,-9.09071 35.15395,-25.45224 0,-20.60794 -13.4855,-23.48834 -29.5459,-23.78947"
       style="fill:#be0028;fill-opacity:1;fill-rule:nonzero;stroke:none"
       id="path4202" />
    <path
       d="m 81.059624,812.36523 c -6.668558,0 -15.60652,1.06051 -23.636721,3.48703 l -1.667139,17.26929 c 6.668558,-1.51439 16.514282,-2.87603 23.030091,-2.87603 10.910599,0 15.305388,0.90776 15.305388,9.69734 l 0,2.42215 -14.54601,0.75938 c -16.060401,0.90776 -29.545901,3.63541 -29.545901,23.7851 0,16.3659 8.335697,25.45661 33.482445,25.45661 11.669976,0 22.881703,-2.5749 31.514173,-5.30255 l 0,-48.4867 c 0,-17.12091 -9.54459,-26.21162 -33.936326,-26.21162 m 13.031619,61.51395 c -2.72765,0.45389 -6.363061,1.06051 -10.151221,1.06051 -9.090711,0 -12.87887,-2.87603 -12.87887,-9.09071 0,-6.51581 3.635411,-7.57632 11.211731,-8.0302 l 11.81836,-0.75501 0,16.81541 z"
       style="fill:#be0028;fill-opacity:1;fill-rule:nonzero;stroke:none"
       id="path4206" />
    <path
       d="m 316.05995,812.36523 c -6.66419,0 -15.60652,1.06051 -23.63672,3.48703 l -1.66714,17.26929 c 6.66856,-1.51439 16.51428,-2.87603 23.03009,-2.87603 10.9106,0 15.30539,0.90776 15.30539,9.69734 l 0,2.42215 -14.54601,0.75938 c -16.0604,0.90776 -29.5459,3.18153 -29.5459,23.7851 0,16.3659 8.3357,25.45661 33.48244,25.45661 11.66998,0 22.88171,-2.5749 31.51418,-5.30255 l 0,-48.4867 c 0,-17.12091 -9.5446,-26.21162 -33.93633,-26.21162 m 13.03162,61.51395 c -2.72765,0.45389 -6.36306,1.06051 -10.15122,1.06051 -9.09071,0 -12.87887,-2.87603 -12.87887,-9.09071 0,-6.51581 3.63541,-7.57632 11.21173,-8.0302 l 11.81836,-0.75501 0,16.81541 z"
       style="fill:#be0028;fill-opacity:1;fill-rule:nonzero;stroke:none"
       id="path4210" />
  </g>
</svg>
